<svg width="45" height="45" viewBox="0 0 45 45" fill="none" xmlns="http://www.w3.org/2000/svg">
<g id="Avatar">
<mask id="mask0_439_242" style="mask-type:alpha" maskUnits="userSpaceOnUse" x="0" y="0" width="45" height="45">
<g id="mask-2">
<path id="Vector" d="M22.5 45C34.9264 45 45 34.9264 45 22.5C45 10.0736 34.9264 0 22.5 0C10.0736 0 0 10.0736 0 22.5C0 34.9264 10.0736 45 22.5 45Z" fill="white"/>
</g>
</mask>
<g mask="url(#mask0_439_242)">
<path id="Oval" d="M22.5 45C34.9264 45 45 34.9264 45 22.5C45 10.0736 34.9264 0 22.5 0C10.0736 0 0 10.0736 0 22.5C0 34.9264 10.0736 45 22.5 45Z" fill="#1A8DE6" fill-opacity="0.1"/>
<path id="Oval_2" d="M22.5 22.5C27.4706 22.5 31.5 18.4706 31.5 13.5C31.5 8.52944 27.4706 4.5 22.5 4.5C17.5294 4.5 13.5 8.52944 13.5 13.5C13.5 18.4706 17.5294 22.5 22.5 22.5Z" fill="#1A8DE6" fill-opacity="0.5"/>
<path id="Oval_3" d="M22.5 63C33.0624 63 41.625 54.4374 41.625 43.875C41.625 33.3126 33.0624 24.75 22.5 24.75C11.9376 24.75 3.375 33.3126 3.375 43.875C3.375 54.4374 11.9376 63 22.5 63Z" fill="#1A8DE6" fill-opacity="0.5"/>
</g>
</g>
</svg>
