<svg width="50" height="50" viewBox="0 0 50 50" fill="none" xmlns="http://www.w3.org/2000/svg">
<g id="solar:login-2-bold">
<g id="Group">
<path id="Vector" fill-rule="evenodd" clip-rule="evenodd" d="M3.38544 25C3.38544 25.8625 4.08544 26.5625 4.94794 26.5625H27.8084L23.7229 30.0625C23.567 30.196 23.4389 30.3589 23.3459 30.542C23.2529 30.725 23.1969 30.9245 23.181 31.1292C23.1652 31.3339 23.1898 31.5397 23.2534 31.7348C23.3171 31.93 23.4186 32.1107 23.5521 32.2667C23.6856 32.4226 23.8485 32.5507 24.0316 32.6437C24.2146 32.7367 24.4141 32.7927 24.6188 32.8086C24.8235 32.8244 25.0293 32.7998 25.2244 32.7362C25.4196 32.6725 25.6003 32.571 25.7563 32.4375L33.0479 26.1875C33.2195 26.0408 33.3572 25.8587 33.4516 25.6537C33.546 25.4487 33.5949 25.2257 33.5949 25C33.5949 24.7743 33.546 24.5513 33.4516 24.3463C33.3572 24.1413 33.2195 23.9592 33.0479 23.8125L25.7563 17.5625C25.4413 17.2929 25.0322 17.1594 24.6188 17.1914C24.2054 17.2235 23.8217 17.4184 23.5521 17.7333C23.2825 18.0483 23.149 18.4574 23.181 18.8708C23.2131 19.2842 23.408 19.6679 23.7229 19.9375L27.8063 23.4375H4.95002C4.53562 23.4375 4.13819 23.6021 3.84517 23.8951C3.55214 24.1882 3.38752 24.5856 3.38752 25H3.38544Z" fill="#F6931E"/>
<path id="Vector_2" d="M19.5312 20.3125H20.3188C19.9746 19.3391 19.9614 18.2792 20.2813 17.2976C20.6012 16.3159 21.2363 15.4673 22.0879 14.8835C22.9396 14.2998 23.9601 14.0136 24.9911 14.0693C26.0221 14.125 27.0058 14.5195 27.7896 15.1917L35.0813 21.4417C35.5944 21.8817 36.0063 22.4276 36.2887 23.0418C36.5711 23.656 36.7174 24.324 36.7174 25C36.7174 25.676 36.5711 26.344 36.2887 26.9582C36.0063 27.5724 35.5944 28.1183 35.0813 28.5583L27.7896 34.8083C27.0058 35.4804 26.0221 35.875 24.9911 35.9307C23.9601 35.9864 22.9396 35.7002 22.0879 35.1164C21.2363 34.5327 20.6012 33.6841 20.2813 32.7024C19.9614 31.7208 19.9746 30.6609 20.3188 29.6875H19.5312V33.3333C19.5312 39.225 19.5312 42.1729 21.3625 44.0021C23.1917 45.8333 26.1396 45.8333 32.0312 45.8333H34.1146C40.0062 45.8333 42.9542 45.8333 44.7833 44.0021C46.6146 42.1729 46.6146 39.225 46.6146 33.3333V16.6667C46.6146 10.775 46.6146 7.82708 44.7833 5.99791C42.9542 4.16666 40.0062 4.16666 34.1146 4.16666H32.0312C26.1396 4.16666 23.1917 4.16666 21.3625 5.99791C19.5312 7.82708 19.5312 10.775 19.5312 16.6667V20.3125Z" fill="#F6931E"/>
</g>
</g>
</svg>
