<?xml version="1.0" encoding="UTF-8"?>
<!DOCTYPE svg PUBLIC "-//W3C//DTD SVG 1.1//EN" "http://www.w3.org/Graphics/SVG/1.1/DTD/svg11.dtd">
<svg xmlns="http://www.w3.org/2000/svg" version="1.1" width="2000px" height="3000px" style="shape-rendering:geometricPrecision; text-rendering:geometricPrecision; image-rendering:optimizeQuality; fill-rule:evenodd; clip-rule:evenodd" xmlns:xlink="http://www.w3.org/1999/xlink">
<g><path style="opacity:1" fill="#fefefe" d="M -0.5,-0.5 C 666.167,-0.5 1332.83,-0.5 1999.5,-0.5C 1999.5,999.5 1999.5,1999.5 1999.5,2999.5C 1332.83,2999.5 666.167,2999.5 -0.5,2999.5C -0.5,1999.5 -0.5,999.5 -0.5,-0.5 Z"/></g>
<g><path style="opacity:1" fill="#269cd8" d="M 1321.5,829.5 C 1373.2,825.752 1410.04,847.085 1432,893.5C 1446.37,937.161 1437.54,975.328 1405.5,1008C 1372.35,1035.02 1335.69,1041.02 1295.5,1026C 1256.15,1006.49 1235.48,974.659 1233.5,930.5C 1235.46,892.406 1252.46,863.239 1284.5,843C 1296.2,836.383 1308.53,831.883 1321.5,829.5 Z"/></g>
<g><path style="opacity:1" fill="#d91d5c" d="M 652.5,831.5 C 700.4,831.184 734.567,852.517 755,895.5C 768.966,934.613 762.966,970.28 737,1002.5C 702.712,1036.7 662.878,1045.2 617.5,1028C 573.564,1005.31 553.73,969.143 558,919.5C 566.602,876.563 591.769,848.396 633.5,835C 639.906,833.438 646.24,832.271 652.5,831.5 Z"/></g>
<g><path style="opacity:1" fill="#269cd8" d="M 1344.5,1302.5 C 1336.24,1280.88 1328.07,1259.22 1320,1237.5C 1315.87,1230.04 1310.37,1223.87 1303.5,1219C 1296.36,1216.59 1289.03,1215.93 1281.5,1217C 1272.82,1219.84 1264.49,1223.5 1256.5,1228C 1235.91,1241.45 1215.91,1255.62 1196.5,1270.5C 1196.17,1270.5 1195.83,1270.5 1195.5,1270.5C 1142.84,1237.7 1096.34,1197.37 1056,1149.5C 1036.09,1125.31 1016.92,1100.64 998.5,1075.5C 998.5,1075.17 998.5,1074.83 998.5,1074.5C 1014.95,1047.26 1030.12,1019.26 1044,990.5C 1055.01,965.649 1050.84,943.982 1031.5,925.5C 1056.29,913.937 1080.96,902.104 1105.5,890C 1115.6,884.991 1125.94,884.325 1136.5,888C 1141.05,890.883 1144.55,894.716 1147,899.5C 1171.49,955.199 1203.49,1005.87 1243,1051.5C 1265.51,1075.32 1291.01,1095.15 1319.5,1111C 1332.63,1117.4 1345.63,1124.06 1358.5,1131C 1379.17,1143.97 1386.33,1162.47 1380,1186.5C 1374.56,1211.48 1369.23,1236.48 1364,1261.5C 1360.85,1272.96 1356.51,1283.96 1351,1294.5C 1349.05,1297.42 1346.89,1300.09 1344.5,1302.5 Z"/></g>
<g><path style="opacity:1" fill="#d81c5c" d="M 1030.5,925.5 C 1009.21,934.658 987.543,943.158 965.5,951C 961,954.167 956.5,957.333 952,960.5C 944.406,969.618 942.406,979.951 946,991.5C 951.494,1006.15 958.827,1019.82 968,1032.5C 978.03,1046.68 988.197,1060.68 998.5,1074.5C 998.5,1074.83 998.5,1075.17 998.5,1075.5C 965.699,1128.16 925.366,1174.66 877.5,1215C 853.307,1234.91 828.64,1254.08 803.5,1272.5C 803.167,1272.5 802.833,1272.5 802.5,1272.5C 790.062,1264.77 777.395,1257.27 764.5,1250C 747.264,1240.55 729.597,1231.88 711.5,1224C 701.609,1221.73 691.609,1221.06 681.5,1222C 670.501,1224.83 661.501,1230.66 654.5,1239.5C 642.396,1214.62 630.229,1189.62 618,1164.5C 615.396,1158.42 613.896,1152.08 613.5,1145.5C 613.903,1136.59 617.903,1129.76 625.5,1125C 672.732,1104.07 716.732,1078.07 757.5,1047C 789.467,1021.71 815.633,991.545 836,956.5C 843.667,941.833 851.333,927.167 859,912.5C 872.186,891.35 891.019,884.183 915.5,891C 941.477,896.795 967.477,902.462 993.5,908C 1006.92,911.712 1019.25,917.545 1030.5,925.5 Z"/></g>
<g><path style="opacity:1" fill="#261c5b" d="M 1030.5,925.5 C 1030.83,925.5 1031.17,925.5 1031.5,925.5C 1050.84,943.982 1055.01,965.649 1044,990.5C 1030.12,1019.26 1014.95,1047.26 998.5,1074.5C 988.197,1060.68 978.03,1046.68 968,1032.5C 958.827,1019.82 951.494,1006.15 946,991.5C 942.406,979.951 944.406,969.618 952,960.5C 956.5,957.333 961,954.167 965.5,951C 987.543,943.158 1009.21,934.658 1030.5,925.5 Z"/></g>
<g><path style="opacity:1" fill="#fefefe" d="M 998.5,1075.5 C 1016.92,1100.64 1036.09,1125.31 1056,1149.5C 1096.34,1197.37 1142.84,1237.7 1195.5,1270.5C 1150.01,1302.56 1107.51,1338.56 1068,1378.5C 1042.6,1406.06 1020.1,1435.72 1000.5,1467.5C 976.117,1434.1 950.284,1401.77 923,1370.5C 887.072,1332.71 847.239,1300.04 803.5,1272.5C 828.64,1254.08 853.307,1234.91 877.5,1215C 925.366,1174.66 965.699,1128.16 998.5,1075.5 Z"/></g>
<g><path style="opacity:1" fill="#26921e" d="M 1344.5,1302.5 C 1344.5,1302.83 1344.5,1303.17 1344.5,1303.5C 1330.63,1319.29 1313.3,1324.79 1292.5,1320C 1278.92,1315.71 1265.92,1310.04 1253.5,1303C 1234.15,1292.66 1215.15,1281.83 1196.5,1270.5C 1215.91,1255.62 1235.91,1241.45 1256.5,1228C 1264.49,1223.5 1272.82,1219.84 1281.5,1217C 1289.03,1215.93 1296.36,1216.59 1303.5,1219C 1310.37,1223.87 1315.87,1230.04 1320,1237.5C 1328.07,1259.22 1336.24,1280.88 1344.5,1302.5 Z"/></g>
<g><path style="opacity:1" fill="#4b1c49" d="M 802.5,1272.5 C 782.99,1286.5 763.323,1300.34 743.5,1314C 735.739,1318.21 727.739,1321.88 719.5,1325C 703.912,1329.58 691.746,1325.08 683,1311.5C 680.333,1306.17 677.667,1300.83 675,1295.5C 669.049,1276.81 662.216,1258.48 654.5,1240.5C 654.5,1240.17 654.5,1239.83 654.5,1239.5C 661.501,1230.66 670.501,1224.83 681.5,1222C 691.609,1221.06 701.609,1221.73 711.5,1224C 729.597,1231.88 747.264,1240.55 764.5,1250C 777.395,1257.27 790.062,1264.77 802.5,1272.5 Z"/></g>
<g><path style="opacity:1" fill="#4bb64a" d="M 654.5,1240.5 C 662.216,1258.48 669.049,1276.81 675,1295.5C 677.667,1300.83 680.333,1306.17 683,1311.5C 691.746,1325.08 703.912,1329.58 719.5,1325C 727.739,1321.88 735.739,1318.21 743.5,1314C 763.323,1300.34 782.99,1286.5 802.5,1272.5C 802.833,1272.5 803.167,1272.5 803.5,1272.5C 847.239,1300.04 887.072,1332.71 923,1370.5C 950.284,1401.77 976.117,1434.1 1000.5,1467.5C 1000.5,1467.83 1000.5,1468.17 1000.5,1468.5C 998.355,1471.43 996.188,1474.43 994,1477.5C 984.184,1496.47 973.851,1515.13 963,1533.5C 959.357,1542.13 955.69,1550.79 952,1559.5C 945.35,1582.25 950.517,1601.58 967.5,1617.5C 940.765,1629.7 914.099,1642.2 887.5,1655C 874.013,1660.69 862.847,1657.85 854,1646.5C 833.692,1601.54 809.025,1559.21 780,1519.5C 752.705,1484.2 719.872,1455.36 681.5,1433C 664.861,1425.35 648.861,1416.68 633.5,1407C 619.794,1394.89 614.628,1379.72 618,1361.5C 624.002,1333.49 630.002,1305.49 636,1277.5C 639.18,1266.61 643.513,1256.28 649,1246.5C 650.617,1244.24 652.45,1242.24 654.5,1240.5 Z"/></g>
<g><path style="opacity:1" fill="#f5931e" d="M 1195.5,1270.5 C 1195.83,1270.5 1196.17,1270.5 1196.5,1270.5C 1215.15,1281.83 1234.15,1292.66 1253.5,1303C 1265.92,1310.04 1278.92,1315.71 1292.5,1320C 1313.3,1324.79 1330.63,1319.29 1344.5,1303.5C 1354.38,1323.97 1364.55,1344.3 1375,1364.5C 1380.21,1374.63 1383.71,1385.3 1385.5,1396.5C 1385.39,1405.22 1381.72,1412.05 1374.5,1417C 1330.94,1436.64 1289.94,1460.31 1251.5,1488C 1216.31,1513.85 1187.48,1545.35 1165,1582.5C 1155.76,1601.31 1145.76,1619.65 1135,1637.5C 1125.65,1649.12 1113.49,1654.45 1098.5,1653.5C 1068.71,1648.38 1039.05,1642.54 1009.5,1636C 994.663,1632.23 980.996,1626.06 968.5,1617.5C 975.807,1613.52 983.474,1610.02 991.5,1607C 1008.14,1602.35 1024.14,1596.01 1039.5,1588C 1051.85,1580.14 1056.68,1568.97 1054,1554.5C 1051.77,1546.04 1048.44,1538.04 1044,1530.5C 1030.71,1508.89 1016.21,1488.22 1000.5,1468.5C 1000.5,1468.17 1000.5,1467.83 1000.5,1467.5C 1020.1,1435.72 1042.6,1406.06 1068,1378.5C 1107.51,1338.56 1150.01,1302.56 1195.5,1270.5 Z"/></g>
<g><path style="opacity:1" fill="#4c921e" d="M 1000.5,1468.5 C 1016.21,1488.22 1030.71,1508.89 1044,1530.5C 1048.44,1538.04 1051.77,1546.04 1054,1554.5C 1056.68,1568.97 1051.85,1580.14 1039.5,1588C 1024.14,1596.01 1008.14,1602.35 991.5,1607C 983.474,1610.02 975.807,1613.52 968.5,1617.5C 968.167,1617.5 967.833,1617.5 967.5,1617.5C 950.517,1601.58 945.35,1582.25 952,1559.5C 955.69,1550.79 959.357,1542.13 963,1533.5C 973.851,1515.13 984.184,1496.47 994,1477.5C 996.188,1474.43 998.355,1471.43 1000.5,1468.5 Z"/></g>
<g><path style="opacity:1" fill="#f6931e" d="M 1330.5,1505.5 C 1380.86,1504.91 1416.02,1527.58 1436,1573.5C 1448.9,1617.07 1439.07,1654.57 1406.5,1686C 1374.93,1711.16 1339.93,1717.16 1301.5,1704C 1256.1,1682.73 1234.6,1646.9 1237,1596.5C 1247.04,1544.29 1278.21,1513.95 1330.5,1505.5 Z"/></g>
<g><path style="opacity:1" fill="#4bb74a" d="M 651.5,1508.5 C 695.267,1506.46 728.767,1523.8 752,1560.5C 764.76,1584.53 768.093,1609.86 762,1636.5C 748.187,1681.33 718.02,1706.83 671.5,1713C 625.565,1714.96 591.732,1695.79 570,1655.5C 551.012,1608.24 559.845,1567.07 596.5,1532C 612.795,1519.18 631.128,1511.35 651.5,1508.5 Z"/></g>
<g><path style="opacity:1" fill="#d91e5d" d="M 483.5,1949.5 C 504.888,1947.19 524.888,1951.35 543.5,1962C 546.671,1964.34 549.671,1966.84 552.5,1969.5C 546.167,1976.5 539.5,1983.17 532.5,1989.5C 516.644,1974.95 498.978,1972.11 479.5,1981C 468.842,1989.27 467.842,1998.61 476.5,2009C 480.172,2011.84 484.172,2014.17 488.5,2016C 508.883,2020.2 527.55,2028.2 544.5,2040C 558.242,2050.99 563.409,2065.16 560,2082.5C 555.385,2103.45 542.552,2115.95 521.5,2120C 493.419,2124.9 468.419,2118.4 446.5,2100.5C 452.819,2093.68 459.319,2087.01 466,2080.5C 482.394,2095.37 500.894,2098.87 521.5,2091C 533.329,2082.04 534.329,2072.04 524.5,2061C 520.71,2058.62 516.71,2056.62 512.5,2055C 498.748,2051.53 485.415,2046.86 472.5,2041C 441.499,2025.33 433.666,2001.83 449,1970.5C 457.795,1959.02 469.295,1952.02 483.5,1949.5 Z"/></g>
<g><path style="opacity:1" fill="#289cd8" d="M 1019.5,1952.5 C 1029.5,1952.5 1039.5,1952.5 1049.5,1952.5C 1060.89,1990.67 1072.89,2028.67 1085.5,2066.5C 1097.12,2028.67 1108.12,1990.67 1118.5,1952.5C 1129.08,1952.18 1139.58,1952.51 1150,1953.5C 1161.69,1991.62 1173.69,2029.62 1186,2067.5C 1197.07,2029.46 1208.23,1991.46 1219.5,1953.5C 1229.5,1952.17 1239.5,1952.17 1249.5,1953.5C 1233.29,2008.12 1217.29,2062.79 1201.5,2117.5C 1191.27,2118.82 1181.11,2118.82 1171,2117.5C 1159.31,2079.41 1147.31,2041.41 1135,2003.5C 1123.06,2041.6 1111.89,2079.93 1101.5,2118.5C 1091.17,2118.5 1080.83,2118.5 1070.5,2118.5C 1053.5,2063.18 1036.5,2007.85 1019.5,1952.5 Z"/></g>
<g><path style="opacity:1" fill="#299dd9" d="M 1454.5,1952.5 C 1464.17,1952.5 1473.83,1952.5 1483.5,1952.5C 1483.33,1981.17 1483.5,2009.84 1484,2038.5C 1496.14,2025.36 1508.64,2012.53 1521.5,2000C 1535.17,1999.33 1548.83,1999.33 1562.5,2000C 1542.83,2019.67 1523.17,2039.33 1503.5,2059C 1523.17,2078.67 1542.83,2098.33 1562.5,2118C 1548.83,2118.67 1535.17,2118.67 1521.5,2118C 1509,2105.5 1496.5,2093 1484,2080.5C 1483.5,2093.16 1483.33,2105.83 1483.5,2118.5C 1473.83,2118.5 1464.17,2118.5 1454.5,2118.5C 1454.5,2063.17 1454.5,2007.83 1454.5,1952.5 Z"/></g>
<g><path style="opacity:1" fill="#d9215d" d="M 992.5,1968.5 C 993.833,1968.5 995.167,1968.5 996.5,1968.5C 996.5,1983.83 996.5,1999.17 996.5,2014.5C 1002.17,2014.5 1007.83,2014.5 1013.5,2014.5C 1015.18,2023.9 1017.18,2033.24 1019.5,2042.5C 1011.83,2042.5 1004.17,2042.5 996.5,2042.5C 996.333,2056.5 996.5,2070.5 997,2084.5C 998.251,2087.38 1000.42,2089.21 1003.5,2090C 1010.83,2090.33 1018.17,2090.67 1025.5,2091C 1028.06,2099.75 1030.4,2108.58 1032.5,2117.5C 1021.18,2118.67 1009.85,2118.83 998.5,2118C 982.342,2113.84 972.175,2103.68 968,2087.5C 967.333,2050.17 967.333,2012.83 968,1975.5C 976.278,1973.23 984.445,1970.89 992.5,1968.5 Z"/></g>
<g><path style="opacity:1" fill="#d91e5d" d="M 624.5,1996.5 C 639.939,1994.36 652.439,1999.36 662,2011.5C 676.67,1997.91 693.837,1993.41 713.5,1998C 727.984,2004.5 736.484,2015.67 739,2031.5C 739.5,2060.5 739.667,2089.5 739.5,2118.5C 730.167,2118.5 720.833,2118.5 711.5,2118.5C 711.667,2092.5 711.5,2066.5 711,2040.5C 704.329,2024.72 693.495,2020.89 678.5,2029C 675.469,2031.56 673.302,2034.73 672,2038.5C 671.5,2065.16 671.333,2091.83 671.5,2118.5C 661.833,2118.5 652.167,2118.5 642.5,2118.5C 642.667,2092.16 642.5,2065.83 642,2039.5C 634.746,2024.65 623.913,2021.15 609.5,2029C 606.469,2031.56 604.302,2034.73 603,2038.5C 602.5,2065.16 602.333,2091.83 602.5,2118.5C 592.833,2118.5 583.167,2118.5 573.5,2118.5C 573.5,2078.83 573.5,2039.17 573.5,1999.5C 583.167,1999.5 592.833,1999.5 602.5,1999.5C 602.183,2002.57 602.516,2005.57 603.5,2008.5C 610.065,2003.57 617.065,1999.57 624.5,1996.5 Z"/></g>
<g><path style="opacity:1" fill="#d91e5c" d="M 801.5,1996.5 C 818.276,1994.43 833.61,1998.1 847.5,2007.5C 848.48,2004.91 848.813,2002.25 848.5,1999.5C 858.167,1999.5 867.833,1999.5 877.5,1999.5C 877.5,2039.17 877.5,2078.83 877.5,2118.5C 867.833,2118.5 858.167,2118.5 848.5,2118.5C 848.667,2095.83 848.5,2073.16 848,2050.5C 841.826,2032 828.993,2023.5 809.5,2025C 789.346,2030.47 779.846,2043.64 781,2064.5C 787.841,2087.5 803.008,2096.5 826.5,2091.5C 827.167,2091.83 827.833,2092.17 828.5,2092.5C 831.598,2099.96 834.598,2107.46 837.5,2115C 837.355,2115.77 837.022,2116.44 836.5,2117C 805.99,2127.67 781.156,2120.17 762,2094.5C 749.362,2070.82 749.362,2047.15 762,2023.5C 771.72,2009.4 784.886,2000.4 801.5,1996.5 Z"/></g>
<g><path style="opacity:1" fill="#d9205d" d="M 945.5,1996.5 C 949.167,1996.5 952.833,1996.5 956.5,1996.5C 956.5,2006.17 956.5,2015.83 956.5,2025.5C 939.112,2026.05 927.945,2034.71 923,2051.5C 922.5,2073.83 922.333,2096.16 922.5,2118.5C 912.833,2118.5 903.167,2118.5 893.5,2118.5C 893.5,2078.83 893.5,2039.17 893.5,1999.5C 903.167,1999.5 912.833,1999.5 922.5,1999.5C 922.187,2002.25 922.52,2004.91 923.5,2007.5C 930.378,2002.73 937.712,1999.06 945.5,1996.5 Z"/></g>
<g><path style="opacity:1" fill="#289cd8" d="M 1291.5,1996.5 C 1322.48,1993.4 1345.31,2005.4 1360,2032.5C 1371.22,2061.69 1365.38,2086.85 1342.5,2108C 1323.57,2121.65 1302.9,2124.98 1280.5,2118C 1246.23,2100.94 1234.06,2073.77 1244,2036.5C 1253.29,2015.38 1269.12,2002.05 1291.5,1996.5 Z"/></g>
<g><path style="opacity:1" fill="#299dd9" d="M 1431.5,1996.5 C 1434.83,1996.5 1438.17,1996.5 1441.5,1996.5C 1441.5,2006.17 1441.5,2015.83 1441.5,2025.5C 1424.11,2026.05 1412.95,2034.71 1408,2051.5C 1407.5,2073.83 1407.33,2096.16 1407.5,2118.5C 1397.83,2118.5 1388.17,2118.5 1378.5,2118.5C 1378.5,2078.83 1378.5,2039.17 1378.5,1999.5C 1388.17,1999.5 1397.83,1999.5 1407.5,1999.5C 1407.19,2002.25 1407.52,2004.91 1408.5,2007.5C 1415.42,2002.09 1423.09,1998.43 1431.5,1996.5 Z"/></g>
<g><path style="opacity:1" fill="#fdfefe" d="M 1295.5,2024.5 C 1323.68,2023.85 1337.18,2037.52 1336,2065.5C 1330.13,2085.7 1316.63,2094.86 1295.5,2093C 1276.25,2086.4 1267.41,2072.9 1269,2052.5C 1272.95,2038.39 1281.78,2029.06 1295.5,2024.5 Z"/></g>
</svg>
