<?xml version="1.0" encoding="UTF-8"?>
<!DOCTYPE svg PUBLIC "-//W3C//DTD SVG 1.1//EN" "http://www.w3.org/Graphics/SVG/1.1/DTD/svg11.dtd">
<svg xmlns="http://www.w3.org/2000/svg" version="1.1" width="3000px" height="2000px" style="shape-rendering:geometricPrecision; text-rendering:geometricPrecision; image-rendering:optimizeQuality; fill-rule:evenodd; clip-rule:evenodd" xmlns:xlink="http://www.w3.org/1999/xlink">
<g><path style="opacity:1" fill="#fefefe" d="M -0.5,-0.5 C 999.5,-0.5 1999.5,-0.5 2999.5,-0.5C 2999.5,666.167 2999.5,1332.83 2999.5,1999.5C 1999.5,1999.5 999.5,1999.5 -0.5,1999.5C -0.5,1332.83 -0.5,666.167 -0.5,-0.5 Z"/></g>
<g><path style="opacity:1" fill="#279cd8" d="M 994.5,703.5 C 1037.29,700.956 1064.12,720.29 1075,761.5C 1077.98,791.246 1067.15,814.412 1042.5,831C 1008.72,848.192 978.882,843.026 953,815.5C 937.568,793.991 934.234,770.658 943,745.5C 953.264,722.815 970.431,708.815 994.5,703.5 Z"/></g>
<g><path style="opacity:1" fill="#d91d5c" d="M 540.5,705.5 C 572.384,702.028 596.884,713.695 614,740.5C 626.745,767.541 624.411,793.208 607,817.5C 580.502,844.997 550.336,849.83 516.5,832C 486.365,809.251 477.865,780.084 491,744.5C 499.277,728.89 511.444,717.39 527.5,710C 531.98,708.564 536.313,707.064 540.5,705.5 Z"/></g>
<g><path style="opacity:1" fill="#269cd8" d="M 1012.5,1020.5 C 1006.38,1005.64 1000.54,990.636 995,975.5C 989.918,965.375 981.752,961.209 970.5,963C 965.387,964.723 960.387,966.723 955.5,969C 941.011,978.664 926.678,988.497 912.5,998.5C 877.666,977.19 846.832,950.856 820,919.5C 806.205,902.886 793.038,885.886 780.5,868.5C 780.5,868.167 780.5,867.833 780.5,867.5C 791.067,850.042 800.9,832.042 810,813.5C 818.164,796.23 815.664,780.897 802.5,767.5C 820.812,759.012 839.145,750.512 857.5,742C 868.412,738.538 876.245,742.038 881,752.5C 899.597,795.862 925.764,834.029 959.5,867C 977.155,881.505 996.489,893.505 1017.5,903C 1034.54,911.27 1040.71,924.77 1036,943.5C 1032.09,961.16 1028.09,978.827 1024,996.5C 1021.77,1005.41 1017.94,1013.41 1012.5,1020.5 Z"/></g>
<g><path style="opacity:1" fill="#d81c5c" d="M 801.5,767.5 C 786.802,774.129 771.802,780.296 756.5,786C 746.154,791.013 742.321,799.18 745,810.5C 746.499,816.499 748.832,822.166 752,827.5C 761.363,841.014 770.863,854.347 780.5,867.5C 780.5,867.833 780.5,868.167 780.5,868.5C 745.894,921.106 702.227,964.773 649.5,999.5C 633.221,990.692 616.887,981.858 600.5,973C 588.74,966.426 576.406,964.76 563.5,968C 558.059,970.626 553.393,974.126 549.5,978.5C 541.634,961.098 533.468,943.765 525,926.5C 520.409,917.081 521.909,908.915 529.5,902C 569.74,884.402 606.073,861.069 638.5,832C 658.689,811.14 674.522,787.307 686,760.5C 693.266,747.117 704.432,741.617 719.5,744C 738.538,747.874 757.538,751.874 776.5,756C 785.639,758.238 793.972,762.072 801.5,767.5 Z"/></g>
<g><path style="opacity:1" fill="#261c5b" d="M 801.5,767.5 C 801.833,767.5 802.167,767.5 802.5,767.5C 815.664,780.897 818.164,796.23 810,813.5C 800.9,832.042 791.067,850.042 780.5,867.5C 770.863,854.347 761.363,841.014 752,827.5C 748.832,822.166 746.499,816.499 745,810.5C 742.321,799.18 746.154,791.013 756.5,786C 771.802,780.296 786.802,774.129 801.5,767.5 Z"/></g>
<g><path style="opacity:1" fill="#fefefe" d="M 780.5,868.5 C 793.038,885.886 806.205,902.886 820,919.5C 846.832,950.856 877.666,977.19 912.5,998.5C 912.5,998.833 912.5,999.167 912.5,999.5C 861.608,1032.89 819.108,1074.89 785,1125.5C 783.878,1127.41 783.045,1129.41 782.5,1131.5C 782.167,1131.5 781.833,1131.5 781.5,1131.5C 754.66,1091.49 722.66,1055.99 685.5,1025C 673.893,1016.22 661.893,1008.05 649.5,1000.5C 649.5,1000.17 649.5,999.833 649.5,999.5C 702.227,964.773 745.894,921.106 780.5,868.5 Z"/></g>
<g><path style="opacity:1" fill="#d91e5c" d="M 1326.5,892.5 C 1349.52,890.671 1371.19,895.171 1391.5,906C 1395.53,908.349 1399.19,911.183 1402.5,914.5C 1395.17,922.5 1387.5,930.167 1379.5,937.5C 1362.07,921.32 1342.4,917.82 1320.5,927C 1307.06,937.226 1306.06,948.56 1317.5,961C 1320.83,963 1324.17,965 1327.5,967C 1345.53,971.505 1362.86,977.838 1379.5,986C 1415.02,1006.95 1421.52,1034.78 1399,1069.5C 1384.73,1083.43 1367.56,1089.76 1347.5,1088.5C 1322.74,1088.28 1300.74,1080.45 1281.5,1065C 1289,1057.5 1296.5,1050 1304,1042.5C 1322.87,1059.45 1344.03,1063.28 1367.5,1054C 1380.34,1044.29 1381.67,1033.29 1371.5,1021C 1367.76,1018.27 1363.76,1015.93 1359.5,1014C 1341.5,1009.44 1324.17,1003.11 1307.5,995C 1275.1,976.129 1267.6,949.962 1285,916.5C 1295.56,902.761 1309.39,894.761 1326.5,892.5 Z"/></g>
<g><path style="opacity:1" fill="#289cd8" d="M 1930.5,896.5 C 1941.85,896.168 1953.19,896.501 1964.5,897.5C 1978.44,940.808 1992.27,984.141 2006,1027.5C 2018.6,983.875 2031.1,940.209 2043.5,896.5C 2055.19,896.168 2066.85,896.501 2078.5,897.5C 2092.42,940.775 2106.26,984.109 2120,1027.5C 2132.66,983.859 2145.16,940.192 2157.5,896.5C 2168.83,896.5 2180.17,896.5 2191.5,896.5C 2173.75,958.883 2155.75,1021.22 2137.5,1083.5C 2125.94,1084.82 2114.44,1084.82 2103,1083.5C 2089.54,1040.13 2075.88,996.799 2062,953.5C 2048.48,996.913 2035.64,1040.58 2023.5,1084.5C 2011.83,1084.5 2000.17,1084.5 1988.5,1084.5C 1969.37,1021.77 1950.04,959.107 1930.5,896.5 Z"/></g>
<g><path style="opacity:1" fill="#299dd9" d="M 2422.5,896.5 C 2433.5,896.5 2444.5,896.5 2455.5,896.5C 2455.33,928.835 2455.5,961.168 2456,993.5C 2470.28,979.096 2484.45,964.596 2498.5,950C 2514.17,949.333 2529.83,949.333 2545.5,950C 2523.17,972.333 2500.83,994.667 2478.5,1017C 2500.83,1039.33 2523.17,1061.67 2545.5,1084C 2529.82,1084.83 2514.16,1084.67 2498.5,1083.5C 2484.83,1069.17 2470.83,1055.17 2456.5,1041.5C 2455.5,1055.82 2455.17,1070.15 2455.5,1084.5C 2444.5,1084.5 2433.5,1084.5 2422.5,1084.5C 2422.5,1021.83 2422.5,959.167 2422.5,896.5 Z"/></g>
<g><path style="opacity:1" fill="#d9215d" d="M 1900.5,914.5 C 1901.5,914.5 1902.5,914.5 1903.5,914.5C 1903.5,931.833 1903.5,949.167 1903.5,966.5C 1910.09,966.189 1916.59,966.522 1923,967.5C 1925.66,977.811 1928.16,988.144 1930.5,998.5C 1921.5,998.5 1912.5,998.5 1903.5,998.5C 1903.33,1013.5 1903.5,1028.5 1904,1043.5C 1905.44,1047.27 1907.94,1050.11 1911.5,1052C 1920.16,1052.5 1928.83,1052.67 1937.5,1052.5C 1940.15,1063.1 1942.48,1073.77 1944.5,1084.5C 1932.16,1084.67 1919.83,1084.5 1907.5,1084C 1885.78,1078.61 1873.61,1064.78 1871,1042.5C 1870.5,1002.5 1870.33,962.501 1870.5,922.5C 1880.71,920.199 1890.71,917.532 1900.5,914.5 Z"/></g>
<g><path style="opacity:1" fill="#d9205d" d="M 1484.5,946.5 C 1502.45,943.897 1516.61,949.897 1527,964.5C 1547.75,944.642 1570.91,941.142 1596.5,954C 1607.41,963.687 1613.57,975.853 1615,990.5C 1615.5,1021.83 1615.67,1053.16 1615.5,1084.5C 1604.5,1084.5 1593.5,1084.5 1582.5,1084.5C 1582.67,1054.83 1582.5,1025.16 1582,995.5C 1576.26,981.711 1566.09,976.544 1551.5,980C 1544.85,983.314 1540.35,988.481 1538,995.5C 1537.5,1025.16 1537.33,1054.83 1537.5,1084.5C 1526.5,1084.5 1515.5,1084.5 1504.5,1084.5C 1504.67,1054.83 1504.5,1025.16 1504,995.5C 1497.02,979.616 1485.52,975.116 1469.5,982C 1465.15,985.337 1461.99,989.504 1460,994.5C 1459.5,1024.5 1459.33,1054.5 1459.5,1084.5C 1448.5,1084.5 1437.5,1084.5 1426.5,1084.5C 1426.5,1039.5 1426.5,994.5 1426.5,949.5C 1437.5,949.5 1448.5,949.5 1459.5,949.5C 1459.33,953.182 1459.5,956.848 1460,960.5C 1467.4,954.387 1475.56,949.721 1484.5,946.5 Z"/></g>
<g><path style="opacity:1" fill="#d9205d" d="M 1684.5,946.5 C 1703.56,944.264 1720.89,948.598 1736.5,959.5C 1737.49,956.232 1737.82,952.898 1737.5,949.5C 1748.5,949.5 1759.5,949.5 1770.5,949.5C 1770.5,994.5 1770.5,1039.5 1770.5,1084.5C 1759.5,1084.5 1748.5,1084.5 1737.5,1084.5C 1737.67,1059.5 1737.5,1034.5 1737,1009.5C 1728.53,984.513 1711.37,975.013 1685.5,981C 1661.7,993.064 1654.86,1011.56 1665,1036.5C 1676.91,1054.18 1693.08,1060.02 1713.5,1054C 1717.55,1062.82 1721.22,1071.82 1724.5,1081C 1724.36,1081.77 1724.02,1082.44 1723.5,1083C 1692.16,1094.93 1665.32,1088.43 1643,1063.5C 1622.4,1032.8 1622.4,1002.13 1643,971.5C 1654.05,958.398 1667.88,950.065 1684.5,946.5 Z"/></g>
<g><path style="opacity:1" fill="#d9215e" d="M 1848.5,945.5 C 1852.5,945.5 1856.5,945.5 1860.5,945.5C 1860.67,956.172 1860.5,966.839 1860,977.5C 1841.62,978.888 1829.28,988.221 1823,1005.5C 1821.54,1031.78 1821.04,1058.12 1821.5,1084.5C 1810.5,1084.5 1799.5,1084.5 1788.5,1084.5C 1788.5,1039.5 1788.5,994.5 1788.5,949.5C 1799.5,949.5 1810.5,949.5 1821.5,949.5C 1821.18,952.572 1821.52,955.572 1822.5,958.5C 1830.43,952.534 1839.1,948.2 1848.5,945.5 Z"/></g>
<g><path style="opacity:1" fill="#289cd8" d="M 2239.5,946.5 C 2278.44,943.329 2305.28,959.662 2320,995.5C 2328.89,1034.87 2315.72,1064.04 2280.5,1083C 2239.49,1096.56 2208.33,1084.73 2187,1047.5C 2173.99,1012.37 2181.82,982.866 2210.5,959C 2219.55,953.136 2229.22,948.969 2239.5,946.5 Z"/></g>
<g><path style="opacity:1" fill="#2a9dd9" d="M 2397.5,945.5 C 2401.5,945.5 2405.5,945.5 2409.5,945.5C 2409.67,956.172 2409.5,966.839 2409,977.5C 2389.92,979.23 2377.26,989.23 2371,1007.5C 2370.5,1033.16 2370.33,1058.83 2370.5,1084.5C 2359.5,1084.5 2348.5,1084.5 2337.5,1084.5C 2337.5,1039.5 2337.5,994.5 2337.5,949.5C 2348.5,949.5 2359.5,949.5 2370.5,949.5C 2370.18,952.572 2370.52,955.572 2371.5,958.5C 2379.43,952.534 2388.1,948.2 2397.5,945.5 Z"/></g>
<g><path style="opacity:1" fill="#27921e" d="M 1012.5,1020.5 C 1012.5,1020.83 1012.5,1021.17 1012.5,1021.5C 1002.54,1031.76 990.545,1035.26 976.5,1032C 968.483,1029.49 960.816,1026.16 953.5,1022C 939.779,1014.48 926.112,1006.98 912.5,999.5C 912.5,999.167 912.5,998.833 912.5,998.5C 926.678,988.497 941.011,978.664 955.5,969C 960.387,966.723 965.387,964.723 970.5,963C 981.752,961.209 989.918,965.375 995,975.5C 1000.54,990.636 1006.38,1005.64 1012.5,1020.5 Z"/></g>
<g><path style="opacity:1" fill="#4b1c49" d="M 649.5,999.5 C 649.5,999.833 649.5,1000.17 649.5,1000.5C 636.989,1009.5 624.323,1018.34 611.5,1027C 605.06,1030.55 598.393,1033.55 591.5,1036C 581.818,1037.91 574.318,1034.74 569,1026.5C 562.767,1010.61 556.267,994.945 549.5,979.5C 549.5,979.167 549.5,978.833 549.5,978.5C 553.393,974.126 558.059,970.626 563.5,968C 576.406,964.76 588.74,966.426 600.5,973C 616.887,981.858 633.221,990.692 649.5,999.5 Z"/></g>
<g><path style="opacity:1" fill="#fdfefe" d="M 2244.5,978.5 C 2268.21,977.256 2283.38,987.922 2290,1010.5C 2292.04,1034.44 2281.54,1049.61 2258.5,1056C 2240.95,1057.64 2227.45,1051.14 2218,1036.5C 2207.7,1008.18 2216.54,988.842 2244.5,978.5 Z"/></g>
<g><path style="opacity:1" fill="#4bb64a" d="M 549.5,979.5 C 556.267,994.945 562.767,1010.61 569,1026.5C 574.318,1034.74 581.818,1037.91 591.5,1036C 598.393,1033.55 605.06,1030.55 611.5,1027C 624.323,1018.34 636.989,1009.5 649.5,1000.5C 661.893,1008.05 673.893,1016.22 685.5,1025C 722.66,1055.99 754.66,1091.49 781.5,1131.5C 772.092,1147.98 762.925,1164.65 754,1181.5C 748.141,1192.26 746.474,1203.59 749,1215.5C 750.333,1218.17 751.667,1220.83 753,1223.5C 755.782,1225.77 757.949,1228.44 759.5,1231.5C 742.734,1239.05 726.068,1246.88 709.5,1255C 702.583,1257.79 695.583,1258.12 688.5,1256C 685.979,1253.78 683.812,1251.28 682,1248.5C 665.42,1209.64 643.087,1174.64 615,1143.5C 592.922,1122.35 567.755,1105.52 539.5,1093C 526.13,1083.9 521.63,1071.4 526,1055.5C 529.759,1038.86 533.425,1022.19 537,1005.5C 539.355,995.795 543.522,987.128 549.5,979.5 Z"/></g>
<g><path style="opacity:1" fill="#f5931e" d="M 912.5,999.5 C 926.112,1006.98 939.779,1014.48 953.5,1022C 960.816,1026.16 968.483,1029.49 976.5,1032C 990.545,1035.26 1002.54,1031.76 1012.5,1021.5C 1020.56,1038.14 1028.72,1054.81 1037,1071.5C 1040.22,1078.54 1040.22,1085.54 1037,1092.5C 1035.13,1094.71 1032.96,1096.54 1030.5,1098C 989.359,1115.85 952.525,1140.01 920,1170.5C 901.846,1190.78 887.179,1213.45 876,1238.5C 866.582,1253.87 853.082,1259.03 835.5,1254C 817.438,1250.25 799.438,1246.25 781.5,1242C 773.926,1239.55 766.926,1236.05 760.5,1231.5C 776.068,1225.06 791.734,1218.56 807.5,1212C 816.782,1205.82 819.949,1197.32 817,1186.5C 814.606,1180.71 811.94,1175.05 809,1169.5C 800.336,1156.68 791.503,1144.01 782.5,1131.5C 783.045,1129.41 783.878,1127.41 785,1125.5C 819.108,1074.89 861.608,1032.89 912.5,999.5 Z"/></g>
<g><path style="opacity:1" fill="#4c921e" d="M 781.5,1131.5 C 781.833,1131.5 782.167,1131.5 782.5,1131.5C 791.503,1144.01 800.336,1156.68 809,1169.5C 811.94,1175.05 814.606,1180.71 817,1186.5C 819.949,1197.32 816.782,1205.82 807.5,1212C 791.734,1218.56 776.068,1225.06 760.5,1231.5C 760.167,1231.5 759.833,1231.5 759.5,1231.5C 757.949,1228.44 755.782,1225.77 753,1223.5C 751.667,1220.83 750.333,1218.17 749,1215.5C 746.474,1203.59 748.141,1192.26 754,1181.5C 762.925,1164.65 772.092,1147.98 781.5,1131.5 Z"/></g>
<g><path style="opacity:1" fill="#f6931e" d="M 999.5,1156.5 C 1035.58,1154.61 1060.41,1170.28 1074,1203.5C 1082.37,1237.07 1072.53,1263.9 1044.5,1284C 1006.68,1302.4 975.176,1294.9 950,1261.5C 934.778,1233.73 936.444,1207.06 955,1181.5C 967.052,1168.06 981.885,1159.73 999.5,1156.5 Z"/></g>
<g><path style="opacity:1" fill="#4bb74a" d="M 543.5,1158.5 C 582.793,1155.67 608.96,1172.67 622,1209.5C 628.592,1245.81 615.758,1272.65 583.5,1290C 541.539,1303.77 510.706,1290.93 491,1251.5C 480.579,1216.76 490.079,1188.93 519.5,1168C 527.191,1163.72 535.191,1160.55 543.5,1158.5 Z"/></g>
</svg>
