<svg xmlns="http://www.w3.org/2000/svg" version="1.1" width="12743px" height="4939px" style="shape-rendering:geometricPrecision; text-rendering:geometricPrecision; image-rendering:optimizeQuality; fill-rule:evenodd; clip-rule:evenodd" xmlns:xlink="http://www.w3.org/1999/xlink">
<g><path style="opacity:1" fill="#fefefe" d="M 2413.5,-0.5 C 2450.5,-0.5 2487.5,-0.5 2524.5,-0.5C 3040.81,14.4303 3507.47,172.264 3924.5,473C 4171.31,654.458 4377.98,873.125 4544.5,1129C 6833.5,1128.34 9122.5,1128.34 11411.5,1129C 11712,1133.27 11981.3,1225.6 12219.5,1406C 12466.8,1599.52 12628.9,1849.35 12706,2155.5C 12727,2244.8 12739.1,2335.13 12742.5,2426.5C 12742.5,2454.5 12742.5,2482.5 12742.5,2510.5C 12730.5,2810.29 12631.7,3076.96 12446,3310.5C 12253.4,3545.33 12008.9,3699.49 11712.5,3773C 11626,3793.26 11538.3,3804.93 11449.5,3808C 9147.93,3808.83 6846.43,3808.67 4545,3807.5C 4292.81,4193.71 3959.98,4488.54 3546.5,4692C 3219.44,4849.18 2874.44,4931.35 2511.5,4938.5C 2483.5,4938.5 2455.5,4938.5 2427.5,4938.5C 1934.22,4927.34 1483.89,4784.17 1076.5,4509C 701.012,4249.46 416.845,3912.96 224,3499.5C 80.4057,3184.45 5.57235,2853.78 -0.5,2507.5C -0.5,2481.83 -0.5,2456.17 -0.5,2430.5C 9.39722,1951.03 144.897,1511.03 406,1110.5C 658.225,732.699 988.058,443.866 1395.5,244C 1717.32,89.8784 2056.66,8.37839 2413.5,-0.5 Z"/></g>
<g><path style="opacity:1" fill="#269dd8" d="M 3671.5,860.5 C 3799.79,856.915 3904.96,903.915 3987,1001.5C 4066.12,1106.85 4086.78,1222.85 4049,1349.5C 4007.44,1467.39 3927.61,1546.89 3809.5,1588C 3683.02,1625.08 3567.35,1604.08 3462.5,1525C 3370.74,1448.47 3324.08,1350.14 3322.5,1230C 3326.54,1103.44 3379.21,1002.78 3480.5,928C 3538.16,888.506 3601.82,866.006 3671.5,860.5 Z"/></g>
<g><path style="opacity:1" fill="#d91c5c" d="M 1213.5,870.5 C 1340.08,867.726 1443.91,914.392 1525,1010.5C 1597.85,1105.94 1621.52,1212.61 1596,1330.5C 1569.04,1433.75 1509.88,1512.59 1418.5,1567C 1317.74,1621.52 1213.07,1630.19 1104.5,1593C 988.136,1546.97 911.636,1464.14 875,1344.5C 842.23,1215.32 868.23,1099.65 953,997.5C 1022.74,920.546 1109.58,878.213 1213.5,870.5 Z"/></g>
<g><path style="opacity:1" fill="#269dd7" d="M 3725.5,2582.5 C 3698.99,2521.78 3675.49,2459.78 3655,2396.5C 3644.42,2367 3630.42,2339.33 3613,2313.5C 3583.78,2274.53 3545.28,2260.7 3497.5,2272C 3461.74,2282.38 3428.07,2297.38 3396.5,2317C 3324.7,2364.55 3254.36,2414.05 3185.5,2465.5C 3185.17,2465.5 3184.83,2465.5 3184.5,2465.5C 3019.09,2363.35 2870.25,2240.02 2738,2095.5C 2676.32,2027.17 2617.65,1956.5 2562,1883.5C 2529.2,1840.55 2497.03,1797.21 2465.5,1753.5C 2465.5,1753.17 2465.5,1752.83 2465.5,1752.5C 2484.41,1722.36 2502.58,1691.69 2520,1660.5C 2547.33,1609.83 2574.67,1559.17 2602,1508.5C 2620.98,1473.58 2635.64,1436.91 2646,1398.5C 2662.92,1323.43 2642.09,1261.43 2583.5,1212.5C 2615.38,1198.56 2647.05,1184.06 2678.5,1169C 2725.86,1145.32 2773.2,1121.65 2820.5,1098C 2846.27,1085.63 2872.94,1075.63 2900.5,1068C 2945.13,1057.86 2978.96,1072.36 3002,1111.5C 3031.64,1173.79 3062.64,1235.45 3095,1296.5C 3156.75,1411.86 3229.08,1519.86 3312,1620.5C 3399.3,1724.85 3501.8,1810.35 3619.5,1877C 3661.36,1899.77 3703.7,1921.77 3746.5,1943C 3768.69,1954.92 3789.69,1968.59 3809.5,1984C 3843.29,2013.93 3859.63,2051.6 3858.5,2097C 3857.99,2116.95 3856.15,2136.78 3853,2156.5C 3847.61,2184.71 3841.28,2212.71 3834,2240.5C 3825.04,2288.57 3815.7,2336.57 3806,2384.5C 3796.15,2431.57 3781.81,2477.24 3763,2521.5C 3753,2543.54 3740.5,2563.87 3725.5,2582.5 Z"/></g>
<g><path style="opacity:1" fill="#d91c5c" d="M 2582.5,1212.5 C 2557.89,1223.66 2532.89,1234.16 2507.5,1244C 2469.32,1258.06 2430.99,1271.73 2392.5,1285C 2363.61,1295.61 2336.61,1309.61 2311.5,1327C 2272.55,1357.94 2260.05,1397.44 2274,1445.5C 2284.81,1481.78 2300.47,1515.78 2321,1547.5C 2367.86,1616.84 2416.03,1685.18 2465.5,1752.5C 2465.5,1752.83 2465.5,1753.17 2465.5,1753.5C 2387.69,1879.31 2297.53,1995.97 2195,2103.5C 2101.1,2198.78 2001.27,2286.61 1895.5,2367C 1848.79,2402.67 1801.79,2437.84 1754.5,2472.5C 1753.83,2472.5 1753.17,2472.5 1752.5,2472.5C 1723.06,2453.94 1693.06,2436.1 1662.5,2419C 1612.5,2392 1562.5,2365 1512.5,2338C 1476.37,2317.96 1438.37,2302.63 1398.5,2292C 1335.23,2276.77 1279.56,2290.77 1231.5,2334C 1225.29,2340.7 1219.29,2347.54 1213.5,2354.5C 1213.17,2354.5 1212.83,2354.5 1212.5,2354.5C 1202.19,2329.89 1191.36,2305.56 1180,2281.5C 1152.95,2226.41 1125.62,2171.41 1098,2116.5C 1084.09,2088.78 1073.76,2059.78 1067,2029.5C 1060.95,1999.84 1068.45,1974.34 1089.5,1953C 1097.46,1945.69 1106.12,1939.36 1115.5,1934C 1202.27,1893.62 1286.94,1849.62 1369.5,1802C 1473.76,1741.7 1570.76,1671.37 1660.5,1591C 1748.12,1510.44 1820.95,1418.61 1879,1315.5C 1898.84,1278.48 1918.18,1241.15 1937,1203.5C 1949.69,1178.51 1964.35,1154.84 1981,1132.5C 2015.64,1091.72 2059.81,1074.22 2113.5,1080C 2127.88,1081.26 2142.22,1082.92 2156.5,1085C 2186.27,1091.19 2215.94,1097.86 2245.5,1105C 2294.96,1114.03 2344.29,1123.7 2393.5,1134C 2436.79,1143.32 2478.79,1156.65 2519.5,1174C 2542.52,1183.92 2563.52,1196.75 2582.5,1212.5 Z"/></g>
<g><path style="opacity:1" fill="#261c5c" d="M 2582.5,1212.5 C 2582.83,1212.5 2583.17,1212.5 2583.5,1212.5C 2642.09,1261.43 2662.92,1323.43 2646,1398.5C 2635.64,1436.91 2620.98,1473.58 2602,1508.5C 2574.67,1559.17 2547.33,1609.83 2520,1660.5C 2502.58,1691.69 2484.41,1722.36 2465.5,1752.5C 2416.03,1685.18 2367.86,1616.84 2321,1547.5C 2300.47,1515.78 2284.81,1481.78 2274,1445.5C 2260.05,1397.44 2272.55,1357.94 2311.5,1327C 2336.61,1309.61 2363.61,1295.61 2392.5,1285C 2430.99,1271.73 2469.32,1258.06 2507.5,1244C 2532.89,1234.16 2557.89,1223.66 2582.5,1212.5 Z"/></g>
<g><path style="opacity:1" fill="#fefefe" d="M 2465.5,1753.5 C 2497.03,1797.21 2529.2,1840.55 2562,1883.5C 2617.65,1956.5 2676.32,2027.17 2738,2095.5C 2870.25,2240.02 3019.09,2363.35 3184.5,2465.5C 3093.43,2530.72 3004.76,2599.22 2918.5,2671C 2768.35,2796.45 2638.18,2939.28 2528,3099.5C 2509.32,3127.52 2491.16,3155.86 2473.5,3184.5C 2473.17,3184.5 2472.83,3184.5 2472.5,3184.5C 2409.58,3096.7 2343.75,3011.03 2275,2927.5C 2175.55,2808.05 2065.05,2700.21 1943.5,2604C 1882.53,2557.19 1819.53,2513.35 1754.5,2472.5C 1801.79,2437.84 1848.79,2402.67 1895.5,2367C 2001.27,2286.61 2101.1,2198.78 2195,2103.5C 2297.53,1995.97 2387.69,1879.31 2465.5,1753.5 Z"/></g>
<g><path style="opacity:1" fill="#d91c5c" d="M 5471.5,1890.5 C 5526.44,1888.73 5580.77,1893.56 5634.5,1905C 5682.24,1918.53 5728.24,1936.53 5772.5,1959C 5799.29,1974.07 5823.96,1992.07 5846.5,2013C 5805.36,2055.14 5763.86,2096.97 5722,2138.5C 5651.59,2067.81 5566.76,2039.64 5467.5,2054C 5435.06,2059.69 5406.06,2072.69 5380.5,2093C 5343.28,2126.67 5332.11,2167.5 5347,2215.5C 5350.16,2223.32 5354.16,2230.65 5359,2237.5C 5374.16,2255.67 5391.99,2270.5 5412.5,2282C 5425.81,2289.15 5439.47,2295.49 5453.5,2301C 5492.27,2313.11 5531.27,2324.44 5570.5,2335C 5610.35,2347.73 5649.01,2363.39 5686.5,2382C 5739.2,2407.76 5786.37,2441.26 5828,2482.5C 5884.28,2542.35 5905.28,2613.02 5891,2694.5C 5872.98,2813.08 5807.48,2892.25 5694.5,2932C 5639.4,2948.8 5583.06,2955.14 5525.5,2951C 5461.91,2947.96 5400.57,2934.62 5341.5,2911C 5296.59,2892.72 5254.26,2870.05 5214.5,2843C 5206.55,2837.38 5198.88,2831.38 5191.5,2825C 5231.68,2784.65 5272.01,2744.49 5312.5,2704.5C 5377.92,2762.54 5454.59,2792.54 5542.5,2794.5C 5583.92,2794.64 5622.59,2784.48 5658.5,2764C 5707.46,2730.45 5723.96,2684.95 5708,2627.5C 5695.33,2601.16 5676.16,2580.99 5650.5,2567C 5633.86,2558.18 5616.86,2550.18 5599.5,2543C 5569.97,2533.53 5540.3,2524.53 5510.5,2516C 5471.73,2503.52 5433.4,2489.86 5395.5,2475C 5343.99,2453.26 5296.66,2424.93 5253.5,2390C 5173.09,2319.97 5144.26,2232.47 5167,2127.5C 5187.28,2033.71 5240.45,1965.88 5326.5,1924C 5372.97,1904.21 5421.3,1893.04 5471.5,1890.5 Z"/></g>
<g><path style="opacity:1" fill="#269dd8" d="M 8712.5,1911.5 C 8773.83,1911.5 8835.17,1911.5 8896.5,1911.5C 8971.16,2150.65 9046.33,2389.65 9122,2628.5C 9191.33,2389.53 9260.49,2150.53 9329.5,1911.5C 9391.17,1911.17 9452.84,1911.5 9514.5,1912.5C 9589.82,2151.45 9664.99,2390.45 9740,2629.5C 9809.48,2390.23 9878.65,2150.9 9947.5,1911.5C 10008.5,1911.5 10069.5,1911.5 10130.5,1911.5C 10031.8,2251.19 9932.99,2590.86 9834,2930.5C 9773.05,2932.49 9711.88,2933.16 9650.5,2932.5C 9575.99,2693.18 9500.82,2453.85 9425,2214.5C 9355.09,2453.9 9285.26,2693.23 9215.5,2932.5C 9154.5,2932.5 9093.5,2932.5 9032.5,2932.5C 8925.52,2592.22 8818.85,2251.88 8712.5,1911.5 Z"/></g>
<g><path style="opacity:1" fill="#269dd8" d="M 11387.5,1911.5 C 11445.8,1911.5 11504.2,1911.5 11562.5,1911.5C 11562.3,2088.83 11562.5,2266.17 11563,2443.5C 11642.8,2363.67 11722.7,2283.83 11802.5,2204C 11885.2,2203.33 11967.8,2203.33 12050.5,2204C 11929.2,2325.33 11807.8,2446.67 11686.5,2568C 11807.8,2689.33 11929.2,2810.67 12050.5,2932C 11968.2,2932.67 11885.8,2932.67 11803.5,2932C 11723.3,2851.83 11643.2,2771.67 11563,2691.5C 11562.5,2771.83 11562.3,2852.17 11562.5,2932.5C 11504.2,2932.5 11445.8,2932.5 11387.5,2932.5C 11387.5,2592.17 11387.5,2251.83 11387.5,1911.5 Z"/></g>
<g><path style="opacity:1" fill="#d91c5c" d="M 8392.5,2704.5 C 8392.17,2488.1 8392.5,2271.76 8393.5,2055.5C 8451.42,2040.85 8509.42,2026.52 8567.5,2012.5C 8567.5,2105.17 8567.5,2197.83 8567.5,2290.5C 8601.5,2290.5 8635.5,2290.5 8669.5,2290.5C 8683.99,2348.8 8698.32,2407.13 8712.5,2465.5C 8664.17,2465.5 8615.83,2465.5 8567.5,2465.5C 8567.33,2545.17 8567.5,2624.83 8568,2704.5C 8574.94,2733.1 8592.77,2750.6 8621.5,2757C 8663.83,2757.5 8706.17,2757.67 8748.5,2757.5C 8762.68,2815.87 8777.01,2874.2 8791.5,2932.5C 8731.5,2932.67 8671.5,2932.5 8611.5,2932C 8518.12,2921.25 8451.62,2873.42 8412,2788.5C 8400.14,2761.74 8393.64,2733.74 8392.5,2704.5 Z"/></g>
<g><path style="opacity:1" fill="#e25484" d="M 8393.5,2055.5 C 8392.5,2271.76 8392.17,2488.1 8392.5,2704.5C 8391.83,2596.5 8391.5,2488.33 8391.5,2380C 8391.5,2271.5 8392.17,2163.33 8393.5,2055.5 Z"/></g>
<g><path style="opacity:1" fill="#d91c5c" d="M 8299.5,2181.5 C 8308.5,2181.5 8317.5,2181.5 8326.5,2181.5C 8326.5,2239.83 8326.5,2298.17 8326.5,2356.5C 8246.94,2358.51 8186.44,2393.18 8145,2460.5C 8128.83,2488.34 8119.5,2518.34 8117,2550.5C 8116.5,2677.83 8116.33,2805.17 8116.5,2932.5C 8058.17,2932.5 7999.83,2932.5 7941.5,2932.5C 7941.5,2689.17 7941.5,2445.83 7941.5,2202.5C 7999.83,2202.5 8058.17,2202.5 8116.5,2202.5C 8116.33,2221.17 8116.5,2239.84 8117,2258.5C 8156.02,2226.9 8199.85,2204.07 8248.5,2190C 8265.47,2186.08 8282.47,2183.25 8299.5,2181.5 Z"/></g>
<g><path style="opacity:1" fill="#269dd8" d="M 11280.5,2181.5 C 11289.5,2181.5 11298.5,2181.5 11307.5,2181.5C 11307.5,2239.83 11307.5,2298.17 11307.5,2356.5C 11228,2358.5 11167.5,2393.17 11126,2460.5C 11109.6,2488.28 11100.3,2518.28 11098,2550.5C 11097.5,2677.83 11097.3,2805.17 11097.5,2932.5C 11039.2,2932.5 10980.8,2932.5 10922.5,2932.5C 10922.5,2689.17 10922.5,2445.83 10922.5,2202.5C 10980.8,2202.5 11039.2,2202.5 11097.5,2202.5C 11097.3,2221.17 11097.5,2239.84 11098,2258.5C 11138.1,2226.01 11183.3,2202.84 11233.5,2189C 11249.2,2185.69 11264.8,2183.19 11280.5,2181.5 Z"/></g>
<g><path style="opacity:1" fill="#d91c5c" d="M 6148.5,2203.5 C 6148.17,2224.84 6148.5,2246.18 6149.5,2267.5C 6150.11,2267.38 6150.44,2267.04 6150.5,2266.5C 6186.31,2234.91 6226.64,2210.41 6271.5,2193C 6316.88,2180.18 6362.21,2180.51 6407.5,2194C 6438.92,2205.8 6466.09,2223.96 6489,2248.5C 6498.76,2259.09 6507.93,2270.09 6516.5,2281.5C 6599.58,2201.76 6698.25,2170.92 6812.5,2189C 6875.5,2203.69 6922.67,2239.19 6954,2295.5C 6980.36,2346.59 6994.36,2400.92 6996,2458.5C 6996.5,2616.5 6996.67,2774.5 6996.5,2932.5C 6938.17,2932.5 6879.83,2932.5 6821.5,2932.5C 6821.67,2779.17 6821.5,2625.83 6821,2472.5C 6815.97,2428.59 6794.47,2395.42 6756.5,2373C 6716.31,2353.4 6676.31,2353.73 6636.5,2374C 6600.34,2396.17 6579.51,2428.34 6574,2470.5C 6573.5,2624.5 6573.33,2778.5 6573.5,2932.5C 6515.17,2932.5 6456.83,2932.5 6398.5,2932.5C 6398.67,2777.83 6398.5,2623.17 6398,2468.5C 6391.98,2428.15 6371.81,2396.98 6337.5,2375C 6295.16,2353.03 6252.82,2353.03 6210.5,2375C 6176.18,2396.46 6156.01,2427.29 6150,2467.5C 6149.5,2622.5 6149.33,2777.5 6149.5,2932.5C 6090.83,2932.5 6032.17,2932.5 5973.5,2932.5C 5973.5,2689.5 5973.5,2446.5 5973.5,2203.5C 6031.83,2203.5 6090.17,2203.5 6148.5,2203.5 Z"/></g>
<g><path style="opacity:1" fill="#d91c5c" d="M 7414.5,2183.5 C 7507.79,2177.59 7590.95,2203.26 7664,2260.5C 7664.5,2241.17 7664.67,2221.84 7664.5,2202.5C 7722.83,2202.5 7781.17,2202.5 7839.5,2202.5C 7839.5,2445.83 7839.5,2689.17 7839.5,2932.5C 7781.17,2932.5 7722.83,2932.5 7664.5,2932.5C 7664.67,2805.83 7664.5,2679.17 7664,2552.5C 7655.29,2470.81 7614.12,2411.98 7540.5,2376C 7468.77,2347.54 7400.44,2353.87 7335.5,2395C 7262.43,2449.49 7233.59,2521.99 7249,2612.5C 7263.03,2669.5 7294.53,2714 7343.5,2746C 7404.28,2780.46 7467.44,2785.63 7533,2761.5C 7553.86,2812.42 7574.53,2863.42 7595,2914.5C 7595.72,2916.11 7595.55,2917.61 7594.5,2919C 7544.96,2942.11 7492.8,2952.94 7438,2951.5C 7305.47,2948.44 7202.8,2892.11 7130,2782.5C 7072.51,2685.98 7055.84,2582.65 7080,2472.5C 7105.37,2368.15 7163.54,2287.98 7254.5,2232C 7304.07,2203.2 7357.4,2187.03 7414.5,2183.5 Z"/></g>
<g><path style="opacity:1" fill="#269dd8" d="M 10436.5,2183.5 C 10581.5,2180.08 10695.7,2237.08 10779,2354.5C 10842.9,2455.21 10858.9,2563.21 10827,2678.5C 10787.7,2798.16 10709.5,2881.33 10592.5,2928C 10519.2,2953.73 10444.5,2958.4 10368.5,2942C 10246.5,2910.3 10158.6,2837.47 10105,2723.5C 10065.8,2629.95 10062.1,2534.95 10094,2438.5C 10141.2,2316.26 10227.4,2235.76 10352.5,2197C 10380.1,2189.37 10408.1,2184.87 10436.5,2183.5 Z"/></g>
<g><path style="opacity:1" fill="#e25584" d="M 6148.5,2203.5 C 6149.17,2224.5 6149.83,2245.5 6150.5,2266.5C 6150.44,2267.04 6150.11,2267.38 6149.5,2267.5C 6148.5,2246.18 6148.17,2224.84 6148.5,2203.5 Z"/></g>
<g><path style="opacity:1" fill="#26921e" d="M 3725.5,2582.5 C 3725.5,2582.83 3725.5,2583.17 3725.5,2583.5C 3678.02,2640.28 3617.68,2661.44 3544.5,2647C 3508.58,2638.21 3474.25,2625.21 3441.5,2608C 3387.5,2579 3333.5,2550 3279.5,2521C 3247.76,2503.07 3216.43,2484.57 3185.5,2465.5C 3254.36,2414.05 3324.7,2364.55 3396.5,2317C 3428.07,2297.38 3461.74,2282.38 3497.5,2272C 3545.28,2260.7 3583.78,2274.53 3613,2313.5C 3630.42,2339.33 3644.42,2367 3655,2396.5C 3675.49,2459.78 3698.99,2521.78 3725.5,2582.5 Z"/></g>
<g><path style="opacity:1" fill="#4b1c49" d="M 1752.5,2472.5 C 1688.51,2519.97 1623.51,2566.14 1557.5,2611C 1533.09,2626.21 1507.76,2639.87 1481.5,2652C 1461.28,2660.52 1440.28,2666.18 1418.5,2669C 1379.02,2670.84 1347.86,2655.68 1325,2623.5C 1309.8,2601.44 1297.47,2577.77 1288,2552.5C 1265.82,2485.45 1240.99,2419.45 1213.5,2354.5C 1219.29,2347.54 1225.29,2340.7 1231.5,2334C 1279.56,2290.77 1335.23,2276.77 1398.5,2292C 1438.37,2302.63 1476.37,2317.96 1512.5,2338C 1562.5,2365 1612.5,2392 1662.5,2419C 1693.06,2436.1 1723.06,2453.94 1752.5,2472.5 Z"/></g>
<g><path style="opacity:1" fill="#4bb649" d="M 1212.5,2354.5 C 1212.83,2354.5 1213.17,2354.5 1213.5,2354.5C 1240.99,2419.45 1265.82,2485.45 1288,2552.5C 1297.47,2577.77 1309.8,2601.44 1325,2623.5C 1347.86,2655.68 1379.02,2670.84 1418.5,2669C 1440.28,2666.18 1461.28,2660.52 1481.5,2652C 1507.76,2639.87 1533.09,2626.21 1557.5,2611C 1623.51,2566.14 1688.51,2519.97 1752.5,2472.5C 1753.17,2472.5 1753.83,2472.5 1754.5,2472.5C 1819.53,2513.35 1882.53,2557.19 1943.5,2604C 2065.05,2700.21 2175.55,2808.05 2275,2927.5C 2343.75,3011.03 2409.58,3096.7 2472.5,3184.5C 2419.57,3274.01 2369.4,3365.35 2322,3458.5C 2304.62,3493.3 2293.29,3529.96 2288,3568.5C 2282.93,3619.6 2297.26,3664.27 2331,3702.5C 2338.78,3710.45 2346.61,3718.11 2354.5,3725.5C 2326.62,3737.44 2298.95,3749.94 2271.5,3763C 2219.32,3789.26 2166.99,3815.26 2114.5,3841C 2089.07,3853.22 2062.74,3862.88 2035.5,3870C 2000.54,3878.68 1971.37,3869.51 1948,3842.5C 1943.75,3837.01 1939.75,3831.34 1936,3825.5C 1907.74,3766.31 1878.4,3707.64 1848,3649.5C 1787.43,3534.96 1716.43,3427.63 1635,3327.5C 1560.26,3237.4 1474.43,3160.24 1377.5,3096C 1322.09,3061.62 1264.76,3030.29 1205.5,3002C 1179.24,2989.04 1154.57,2973.71 1131.5,2956C 1104.02,2933.54 1087.52,2904.71 1082,2869.5C 1079.1,2838.32 1080.43,2807.32 1086,2776.5C 1090.88,2751.98 1096.55,2727.65 1103,2703.5C 1111.21,2660.13 1119.54,2616.8 1128,2573.5C 1136.55,2529.97 1148.22,2487.3 1163,2445.5C 1175.37,2412.74 1191.87,2382.41 1212.5,2354.5 Z"/></g>
<g><path style="opacity:1" fill="#fefefe" d="M 10441.5,2358.5 C 10513.3,2355.52 10572.8,2380.85 10620,2434.5C 10663.5,2490.05 10677.1,2552.39 10661,2621.5C 10641.5,2685.7 10601.3,2731.86 10540.5,2760C 10467.9,2787.71 10399.2,2780.37 10334.5,2738C 10258.3,2676.8 10232.5,2598.63 10257,2503.5C 10280.8,2437.01 10326,2391.84 10392.5,2368C 10408.6,2363.11 10425,2359.94 10441.5,2358.5 Z"/></g>
<g><path style="opacity:1" fill="#f5921e" d="M 3184.5,2465.5 C 3184.83,2465.5 3185.17,2465.5 3185.5,2465.5C 3216.43,2484.57 3247.76,2503.07 3279.5,2521C 3333.5,2550 3387.5,2579 3441.5,2608C 3474.25,2625.21 3508.58,2638.21 3544.5,2647C 3617.68,2661.44 3678.02,2640.28 3725.5,2583.5C 3736.71,2608.93 3748.21,2634.26 3760,2659.5C 3786.41,2713.32 3813.08,2766.99 3840,2820.5C 3853.44,2847.71 3863.77,2876.04 3871,2905.5C 3877.65,2936.77 3869.82,2963.6 3847.5,2986C 3839.05,2993.11 3830.05,2999.44 3820.5,3005C 3707.29,3057.09 3598.29,3116.09 3493.5,3182C 3394.56,3244.89 3303.73,3318.39 3221,3402.5C 3159.47,3467.02 3106.8,3538.02 3063,3615.5C 3035.59,3667.99 3007.92,3720.32 2980,3772.5C 2966.13,3797.04 2947.97,3817.87 2925.5,3835C 2906.29,3847.29 2885.29,3854.63 2862.5,3857C 2833.62,3858.83 2804.95,3857.16 2776.5,3852C 2751.99,3847.12 2727.66,3841.46 2703.5,3835C 2649.37,3824.97 2595.37,3814.3 2541.5,3803C 2489.01,3792.28 2439.01,3774.62 2391.5,3750C 2378.95,3742.57 2366.95,3734.4 2355.5,3725.5C 2376.53,3715.87 2397.86,3706.7 2419.5,3698C 2462.87,3681.54 2506.54,3665.88 2550.5,3651C 2579.27,3640.29 2605.94,3625.95 2630.5,3608C 2664.76,3578.54 2676.6,3541.71 2666,3497.5C 2659.06,3471.29 2649.06,3446.29 2636,3422.5C 2621.25,3395.99 2605.25,3370.33 2588,3345.5C 2549.59,3291.94 2511.42,3238.27 2473.5,3184.5C 2491.16,3155.86 2509.32,3127.52 2528,3099.5C 2638.18,2939.28 2768.35,2796.45 2918.5,2671C 3004.76,2599.22 3093.43,2530.72 3184.5,2465.5 Z"/></g>
<g><path style="opacity:1" fill="#4b921e" d="M 2472.5,3184.5 C 2472.83,3184.5 2473.17,3184.5 2473.5,3184.5C 2511.42,3238.27 2549.59,3291.94 2588,3345.5C 2605.25,3370.33 2621.25,3395.99 2636,3422.5C 2649.06,3446.29 2659.06,3471.29 2666,3497.5C 2676.6,3541.71 2664.76,3578.54 2630.5,3608C 2605.94,3625.95 2579.27,3640.29 2550.5,3651C 2506.54,3665.88 2462.87,3681.54 2419.5,3698C 2397.86,3706.7 2376.53,3715.87 2355.5,3725.5C 2355.17,3725.5 2354.83,3725.5 2354.5,3725.5C 2346.61,3718.11 2338.78,3710.45 2331,3702.5C 2297.26,3664.27 2282.93,3619.6 2288,3568.5C 2293.29,3529.96 2304.62,3493.3 2322,3458.5C 2369.4,3365.35 2419.57,3274.01 2472.5,3184.5 Z"/></g>
<g><path style="opacity:1" fill="#f6921e" d="M 3674.5,3322.5 C 3792.61,3316.46 3893.11,3355.13 3976,3438.5C 4066.39,3540.05 4096.05,3657.38 4065,3790.5C 4025.83,3922 3941,4009.17 3810.5,4052C 3693.26,4083.68 3584.93,4065.01 3485.5,3996C 3393.38,3926.29 3342.54,3833.45 3333,3717.5C 3328.38,3591.61 3373.54,3487.78 3468.5,3406C 3528.85,3357.93 3597.51,3330.1 3674.5,3322.5 Z"/></g>
<g><path style="opacity:1" fill="#4bb649" d="M 1216.5,3332.5 C 1345.16,3327.1 1450.99,3373.1 1534,3470.5C 1612.7,3573.33 1634.7,3687.33 1600,3812.5C 1569.45,3909.37 1509.95,3982.54 1421.5,4032C 1323.12,4082.88 1221.45,4090.55 1116.5,4055C 995.277,4007.44 917.111,3920.94 882,3795.5C 853.698,3668.38 881.365,3555.38 965,3456.5C 1032.75,3383.04 1116.59,3341.71 1216.5,3332.5 Z"/></g>
</svg>
