<svg width="50" height="50" viewBox="0 0 50 50" fill="none" xmlns="http://www.w3.org/2000/svg">
<g id="solar:logout-2-bold">
<g id="Group">
<path id="Vector" fill-rule="evenodd" clip-rule="evenodd" d="M33.5938 25C33.5938 24.5856 33.4292 24.1882 33.1361 23.8951C32.8431 23.6021 32.4457 23.4375 32.0313 23.4375H9.17086L13.2563 19.9375C13.4122 19.804 13.5403 19.6411 13.6333 19.458C13.7263 19.275 13.7823 19.0755 13.7982 18.8708C13.814 18.6661 13.7894 18.4603 13.7258 18.2652C13.6621 18.07 13.5606 17.8893 13.4271 17.7333C13.2936 17.5774 13.1307 17.4493 12.9477 17.3563C12.7646 17.2633 12.5651 17.2073 12.3604 17.1914C12.1557 17.1756 11.9499 17.2002 11.7548 17.2638C11.5596 17.3275 11.3789 17.429 11.2229 17.5625L3.93127 23.8125C3.75974 23.9592 3.62203 24.1413 3.5276 24.3463C3.43317 24.5513 3.38428 24.7743 3.38428 25C3.38428 25.2257 3.43317 25.4487 3.5276 25.6537C3.62203 25.8587 3.75974 26.0408 3.93127 26.1875L11.2229 32.4375C11.5379 32.7071 11.947 32.8406 12.3604 32.8086C12.7738 32.7765 13.1575 32.5816 13.4271 32.2667C13.6967 31.9517 13.8302 31.5426 13.7982 31.1292C13.7661 30.7158 13.5712 30.3321 13.2563 30.0625L9.17294 26.5625H32.0313C32.4457 26.5625 32.8431 26.3979 33.1361 26.1049C33.4292 25.8118 33.5938 25.4144 33.5938 25Z" fill="#F6931E"/>
<path id="Vector_2" d="M19.5313 16.6667C19.5313 18.1292 19.5312 18.8604 19.8833 19.3875C20.035 19.6141 20.2296 19.8088 20.4563 19.9604C20.9833 20.3125 21.7146 20.3125 23.1771 20.3125H32.0313C33.2745 20.3125 34.4667 20.8064 35.3458 21.6854C36.2249 22.5645 36.7188 23.7568 36.7188 25C36.7188 26.2432 36.2249 27.4355 35.3458 28.3146C34.4667 29.1936 33.2745 29.6875 32.0313 29.6875H23.1771C21.7146 29.6875 20.9833 29.6875 20.4563 30.0375C20.2294 30.1898 20.0348 30.3851 19.8833 30.6125C19.5312 31.1396 19.5313 31.8708 19.5313 33.3333C19.5313 39.225 19.5312 42.1729 21.3625 44.0021C23.1917 45.8333 26.1375 45.8333 32.0292 45.8333H34.1125C40.0083 45.8333 42.9521 45.8333 44.7833 44.0021C46.6146 42.1729 46.6146 39.225 46.6146 33.3333V16.6667C46.6146 10.775 46.6146 7.82708 44.7833 5.99791C42.9521 4.16666 40.0063 4.16666 34.1146 4.16666H32.0313C26.1375 4.16666 23.1917 4.16666 21.3625 5.99791C19.5312 7.82708 19.5313 10.775 19.5313 16.6667Z" fill="#F6931E"/>
</g>
</g>
</svg>
