<svg width="50" height="50" viewBox="0 0 50 50" fill="none" xmlns="http://www.w3.org/2000/svg">
<path d="M12.5 15C12.5 12.3478 13.5536 9.8043 15.4289 7.92893C17.3043 6.05357 19.8478 5 22.5 5C25.1522 5 27.6957 6.05357 29.5711 7.92893C31.4464 9.8043 32.5 12.3478 32.5 15C32.5 17.6522 31.4464 20.1957 29.5711 22.0711C27.6957 23.9464 25.1522 25 22.5 25C19.8478 25 17.3043 23.9464 15.4289 22.0711C13.5536 20.1957 12.5 17.6522 12.5 15ZM5 32.5C5 29.7175 7.2575 27.5 10.0225 27.5H25.6425C23.6065 29.9609 22.4949 33.0561 22.5 36.25C22.5 39.5075 23.6325 42.5 25.525 44.8575C24.5375 44.9525 23.525 45 22.5 45C17.8625 45 13.5425 44.035 10.3375 41.9925C7.0825 39.9175 5 36.725 5 32.5ZM47.5 36.25C47.5 39.2337 46.3147 42.0952 44.2049 44.2049C42.0952 46.3147 39.2337 47.5 36.25 47.5C33.2663 47.5 30.4048 46.3147 28.295 44.2049C26.1853 42.0952 25 39.2337 25 36.25C25 33.2663 26.1853 30.4048 28.295 28.295C30.4048 26.1853 33.2663 25 36.25 25C39.2337 25 42.0952 26.1853 44.2049 28.295C46.3147 30.4048 47.5 33.2663 47.5 36.25ZM40.885 33.385C41.1197 33.1503 41.2516 32.8319 41.2516 32.5C41.2516 32.1681 41.1197 31.8497 40.885 31.615C40.6503 31.3803 40.3319 31.2484 40 31.2484C39.6681 31.2484 39.3497 31.3803 39.115 31.615L36.25 34.4825L33.385 31.615C33.1503 31.3803 32.8319 31.2484 32.5 31.2484C32.1681 31.2484 31.8497 31.3803 31.615 31.615C31.3803 31.8497 31.2484 32.1681 31.2484 32.5C31.2484 32.8319 31.3803 33.1503 31.615 33.385L34.4825 36.25L31.615 39.115C31.4988 39.2312 31.4066 39.3692 31.3437 39.521C31.2808 39.6729 31.2484 39.8356 31.2484 40C31.2484 40.1644 31.2808 40.3271 31.3437 40.479C31.4066 40.6308 31.4988 40.7688 31.615 40.885C31.7312 41.0012 31.8692 41.0934 32.021 41.1563C32.1729 41.2192 32.3356 41.2516 32.5 41.2516C32.6644 41.2516 32.8271 41.2192 32.979 41.1563C33.1308 41.0934 33.2688 41.0012 33.385 40.885L36.25 38.0175L39.115 40.885C39.2312 41.0012 39.3692 41.0934 39.521 41.1563C39.6729 41.2192 39.8356 41.2516 40 41.2516C40.1644 41.2516 40.3271 41.2192 40.479 41.1563C40.6308 41.0934 40.7688 41.0012 40.885 40.885C41.0012 40.7688 41.0934 40.6308 41.1563 40.479C41.2192 40.3271 41.2516 40.1644 41.2516 40C41.2516 39.8356 41.2192 39.6729 41.1563 39.521C41.0934 39.3692 41.0012 39.2312 40.885 39.115L38.0175 36.25L40.885 33.385Z" fill="#F6931E"/>
</svg>
