<svg width="50" height="50" viewBox="0 0 50 50" fill="none" xmlns="http://www.w3.org/2000/svg">
<g id="ic:round-location-off">
<path id="Vector" d="M5.64582 7.41667C5.45269 7.6094 5.29946 7.83834 5.19492 8.09037C5.09037 8.34239 5.03656 8.61257 5.03656 8.88542C5.03656 9.15827 5.09037 9.42844 5.19492 9.68047C5.29946 9.9325 5.45269 10.1614 5.64582 10.3542L10.7917 15.5C10.5625 16.5625 10.4167 17.6458 10.4167 18.75C10.4167 27.4375 19.625 39.4167 23.3958 43.9792C24.2292 44.9792 25.75 44.9792 26.5833 43.9792C27.9375 42.3542 29.9583 39.7917 32.0208 36.7708L37.5417 42.2917C37.7345 42.4845 37.9635 42.6375 38.2155 42.7419C38.4675 42.8463 38.7376 42.9 39.0104 42.9C39.2832 42.9 39.5533 42.8463 39.8053 42.7419C40.0573 42.6375 40.2863 42.4845 40.4791 42.2917C40.672 42.0988 40.825 41.8698 40.9294 41.6178C41.0338 41.3658 41.0875 41.0957 41.0875 40.8229C41.0875 40.5501 41.0338 40.28 40.9294 40.028C40.825 39.776 40.672 39.547 40.4791 39.3542L8.58332 7.41667C8.39058 7.22354 8.16165 7.07031 7.90962 6.96577C7.65759 6.86122 7.38742 6.80741 7.11457 6.80741C6.84172 6.80741 6.57155 6.86122 6.31952 6.96577C6.06749 7.07031 5.83856 7.22354 5.64582 7.41667ZM25 4.16667C21.1667 4.16667 17.7083 5.64583 15.1042 8.04167L21.75 14.6875C22.6458 13.9792 23.7708 13.5417 25 13.5417C26.3813 13.5417 27.7061 14.0904 28.6828 15.0672C29.6596 16.0439 30.2083 17.3687 30.2083 18.75C30.2083 19.9792 29.7708 21.1042 29.0417 22L36.4375 29.3958C38.2708 25.75 39.5833 22.0208 39.5833 18.75C39.5833 10.6875 33.0625 4.16667 25 4.16667Z" fill="#F6931E"/>
</g>
</svg>
