<svg width="50" height="50" viewBox="0 0 50 50" fill="none" xmlns="http://www.w3.org/2000/svg">
<g id="ic:round-wrong-location">
<path id="Vector" d="M42.5417 9.375L45.4167 6.5C45.8062 6.11046 46.0251 5.58214 46.0251 5.03125C46.0251 4.48036 45.8062 3.95204 45.4167 3.5625C45.0271 3.17296 44.4988 2.95412 43.9479 2.95412C43.397 2.95412 42.8687 3.17296 42.4792 3.5625L39.5834 6.41667L36.7084 3.54167C36.3188 3.15213 35.7905 2.93329 35.2396 2.93329C34.6887 2.93329 34.1604 3.15213 33.7709 3.54167C33.3813 3.9312 33.1625 4.45953 33.1625 5.01042C33.1625 5.56131 33.3813 6.08963 33.7709 6.47917L36.6459 9.35417L33.7709 12.2292C33.578 12.422 33.425 12.651 33.3206 12.903C33.2162 13.155 33.1625 13.4251 33.1625 13.6979C33.1625 13.9707 33.2162 14.2408 33.3206 14.4928C33.425 14.7448 33.578 14.9738 33.7709 15.1667C34.1604 15.5562 34.6887 15.775 35.2396 15.775C35.5124 15.775 35.7825 15.7213 36.0345 15.6169C36.2865 15.5125 36.5155 15.3595 36.7084 15.1667L39.5834 12.3333L42.4584 15.2083C42.6512 15.4012 42.8802 15.5542 43.1322 15.6586C43.3842 15.763 43.6543 15.8167 43.9271 15.8167C44.1999 15.8167 44.47 15.763 44.722 15.6586C44.974 15.5542 45.203 15.4012 45.3959 15.2083C45.5887 15.0155 45.7417 14.7865 45.8461 14.5345C45.9505 14.2825 46.0042 14.0124 46.0042 13.7396C46.0042 13.4668 45.9505 13.1967 45.8461 12.9447C45.7417 12.6927 45.5887 12.4637 45.3959 12.2708L42.5417 9.375Z" fill="#F6931E"/>
<path id="Vector_2" d="M40.9791 16.6667L39.5833 15.2708L38.3541 16.5C36.8958 17.9583 34.5208 18.3333 32.8333 17.125C32.3383 16.7737 31.9258 16.3186 31.6246 15.7917C31.3234 15.2647 31.1406 14.6783 31.089 14.0735C31.0375 13.4687 31.1184 12.8599 31.3261 12.2895C31.5337 11.7192 31.8633 11.2009 32.2916 10.7708L33.6875 9.375L32.2916 7.97917C31.5416 7.22917 31.1666 6.29167 31.1041 5.3125C29.1875 4.5625 27.125 4.16667 25 4.16667C16.25 4.16667 8.33331 10.875 8.33331 21.25C8.33331 27.875 13.4375 35.6667 23.625 44.6458C24.4166 45.3333 25.6041 45.3333 26.3958 44.6458C36.5625 35.6667 41.6666 27.875 41.6666 21.25C41.6666 19.6667 41.4583 18.1875 41.125 16.7917C41.0833 16.75 41.0208 16.7083 40.9791 16.6667ZM25 25C22.7083 25 20.8333 23.125 20.8333 20.8333C20.8333 18.5417 22.7083 16.6667 25 16.6667C27.2916 16.6667 29.1666 18.5417 29.1666 20.8333C29.1666 23.125 27.2916 25 25 25Z" fill="#F6931E"/>
</g>
</svg>
