<svg width="50" height="50" viewBox="0 0 50 50" fill="none" xmlns="http://www.w3.org/2000/svg">
<g id="material-symbols:scan-delete-rounded">
<path id="Vector" d="M37.4999 18.75L27.0833 8.33336V14.5834C27.0833 15.7292 27.4916 16.7104 28.3083 17.5271C29.1249 18.3438 30.1055 18.7514 31.2499 18.75H37.4999ZM37.4999 40.4688L34.5833 43.3334C34.2013 43.7153 33.7235 43.9153 33.1499 43.9334C32.5763 43.9514 32.0819 43.7514 31.6666 43.3334C31.2846 42.9514 31.0937 42.4653 31.0937 41.875C31.0937 41.2848 31.2846 40.7986 31.6666 40.4167L34.5833 37.5L31.6666 34.5834C31.2846 34.2014 31.0937 33.7153 31.0937 33.125C31.0937 32.5347 31.2846 32.0486 31.6666 31.6667C32.0485 31.2847 32.5346 31.0938 33.1249 31.0938C33.7152 31.0938 34.2013 31.2847 34.5833 31.6667L37.4999 34.5834L40.4166 31.6667C40.7985 31.2847 41.2763 31.0854 41.8499 31.0688C42.4235 31.0521 42.918 31.2514 43.3333 31.6667C43.7152 32.0486 43.9062 32.5347 43.9062 33.125C43.9062 33.7153 43.7152 34.2014 43.3333 34.5834L40.4687 37.5L43.3333 40.4167C43.7152 40.7986 43.9152 41.2764 43.9333 41.85C43.9513 42.4236 43.7513 42.9181 43.3333 43.3334C42.9513 43.7153 42.4652 43.9063 41.8749 43.9063C41.2846 43.9063 40.7985 43.7153 40.4166 43.3334L37.4999 40.4688ZM12.4999 45.8334C11.3541 45.8334 10.3728 45.425 9.55617 44.6084C8.73951 43.7917 8.33187 42.8111 8.33326 41.6667V8.33336C8.33326 7.18752 8.74159 6.20627 9.55825 5.38961C10.3749 4.57294 11.3555 4.1653 12.4999 4.16669H27.4478C28.0034 4.16669 28.5333 4.27086 29.0374 4.47919C29.5416 4.68752 29.9839 4.98266 30.3645 5.36461L40.4687 15.4688C40.8506 15.8507 41.1458 16.2938 41.3541 16.7979C41.5624 17.3021 41.6666 17.8313 41.6666 18.3854V25.7292C41.0069 25.4861 40.3208 25.3035 39.6083 25.1813C38.8958 25.0591 38.1763 24.9986 37.4499 25C33.9777 25 31.0353 26.207 28.6228 28.6209C26.2103 31.0347 25.0027 33.9764 24.9999 37.4459C24.9999 39.0084 25.2777 40.5104 25.8333 41.9521C26.3888 43.3938 27.1874 44.6875 28.2291 45.8334H12.4999Z" fill="#F6931E"/>
</g>
</svg>
