<svg width="22" height="22" viewBox="0 0 22 22" fill="#F6931E" xmlns="http://www.w3.org/2000/svg">
<path id="Vector" d="M11 2C6.02862 2 2 6.02975 2 11C2 15.9703 6.02862 20 11 20C15.9714 20 20 15.9703 20 11C20 6.02975 15.9714 2 11 2ZM15.1704 13.5796C15.3813 13.7906 15.4998 14.0767 15.4998 14.375C15.4998 14.6733 15.3813 14.9594 15.1704 15.1704C14.9594 15.3813 14.6733 15.4998 14.375 15.4998C14.0767 15.4998 13.7906 15.3813 13.5796 15.1704L11 12.5907L8.42037 15.1704C8.31614 15.2752 8.19221 15.3584 8.05571 15.4152C7.91921 15.4719 7.77283 15.5012 7.625 15.5012C7.47717 15.5012 7.33079 15.4719 7.19429 15.4152C7.05779 15.3584 6.93386 15.2752 6.82963 15.1704C6.72506 15.066 6.64211 14.942 6.58551 14.8055C6.52891 14.6691 6.49977 14.5228 6.49977 14.375C6.49977 14.2272 6.52891 14.0809 6.58551 13.9445C6.64211 13.808 6.72506 13.684 6.82963 13.5796L9.40925 11L6.82963 8.42037C6.61868 8.20943 6.50017 7.92332 6.50017 7.625C6.50017 7.32668 6.61868 7.04057 6.82963 6.82963C7.04057 6.61868 7.32668 6.50017 7.625 6.50017C7.92332 6.50017 8.20943 6.61868 8.42037 6.82963L11 9.40925L13.5796 6.82963C13.7906 6.61868 14.0767 6.50017 14.375 6.50017C14.6733 6.50017 14.9594 6.61868 15.1704 6.82963C15.3813 7.04057 15.4998 7.32668 15.4998 7.625C15.4998 7.92332 15.3813 8.20943 15.1704 8.42037L12.5907 11L15.1704 13.5796Z" />
</svg>
